<svg xmlns="http://www.w3.org/2000/svg" xmlns:xlink="http://www.w3.org/1999/xlink" width="84" height="84" viewBox="0 0 84 84">
  <defs>
    <clipPath id="clip-path">
      <circle id="SVGID" cx="40" cy="40" r="40" fill="none"/>
    </clipPath>
  </defs>
  <g id="Grupo_1421" data-name="Grupo 1421" transform="translate(-1403.061 -206.89)">
    <g id="Elipse_7" data-name="Elipse 7" transform="translate(1405.061 208.89)" fill="#fff" stroke="#15cfd3" stroke-width="2">
      <circle cx="40" cy="40" r="40" stroke="none"/>
      <circle cx="40" cy="40" r="41" fill="none"/>
    </g>
    <g id="Grupo_59" data-name="Grupo 59" transform="translate(1405.061 208.89)">
      <g id="Grupo_58" data-name="Grupo 58" clip-path="url(#clip-path)">
        <g id="Layer_2" data-name="Layer 2" transform="translate(-18.901 20.955) rotate(-16)">
          <g id="Layer_1" data-name="Layer 1" transform="translate(-0.031)">
            <g id="Layer_2-2" data-name="Layer 2">
              <g id="Layer_1-2" data-name="Layer 1-2">
                <g id="Layer0_5_MEMBER_0_FILL" data-name="Layer0 5 MEMBER 0 FILL" transform="translate(69.092 42.871)">
                  <path id="Caminho_1157" data-name="Caminho 1157" d="M94.636,53.619l-.848-1.7h0v-.068l-.246-.356a3.451,3.451,0,0,0-.28-.407l-.407-.5c-.059-.068-.11-.085-.161,0a.238.238,0,0,0,0,.1v.373l.178,1.154v.11h0l.221,1.7.1,2.545v.577l-.271,2.062-.39,1.34-.059.136V60.8l-.11.238v.136l-.051.11-.331.585-.161.212a9.239,9.239,0,0,1-.662.848,8.2,8.2,0,0,1-.747.789L88.7,65l-.551.39-.1.085-1.222.721-1.7.848-3.64,1.493a.11.11,0,0,0-.068.153.1.1,0,0,0,.127.068l3.869-.976c.73-.246,1.34-.475,1.816-.679a18.665,18.665,0,0,0,2.028-.908l1.985-1.332a8.375,8.375,0,0,0,.933-.848,9.28,9.28,0,0,0,.848-.95l.212-.238.993-1.476.3-.594v-.153l.076-.127v-.119h0l.2-.619a7.451,7.451,0,0,0,.467-1.179,5.429,5.429,0,0,0,.093-1.23L95.3,56.2c-.085-.484-.153-.848-.212-1.052l-.271-.959-.17-.433Z" transform="translate(-81.408 -50.532)" fill="#4b0d31"/>
                </g>
                <g id="Layer0_5_MEMBER_1_FILL" data-name="Layer0 5 MEMBER 1 FILL" transform="translate(29.606 80.722)">
                  <path id="Caminho_1158" data-name="Caminho 1158" d="M40.7,95.209a.07.07,0,0,0-.11-.051.093.093,0,0,0-.068.093l.11.942v.17a5.49,5.49,0,0,1,0,.747l-.051.848c-.093.518-.161.848-.2.942a5.573,5.573,0,0,1-.373.9,3.529,3.529,0,0,1-.551.848l-.068.093-.085.085-.093.068-.085.093-1.188.789-.772.484-.7.475-.136.068h0l-1.247.848-.059.059-.127.093a.093.093,0,0,0,0,.136h.229l.984.085h.73l1.086-.263a5.226,5.226,0,0,0,1.027-.5l.314-.229h0l.119-.093.848-.908.39-.6a7.423,7.423,0,0,0,.543-1.179,4.683,4.683,0,0,0,.229-1.179V97.932a5.745,5.745,0,0,0-.153-.95Z" transform="translate(-34.865 -95.147)"/>
                </g>
                <g id="Layer0_5_MEMBER_2_FILL" data-name="Layer0 5 MEMBER 2 FILL" transform="translate(42.355 75.756)">
                  <path id="Caminho_1159" data-name="Caminho 1159" d="M58.468,93.015,57.2,90.47l-.076-.119-.534-1.01c0-.059-.085-.068-.161,0s-.059.068-.042.136l1.349,3.809c.238.772.416,1.4.526,1.892l.585,2.986V98.3l.085,1.01v1.425a7.789,7.789,0,0,1-.119,1.145l-.127.518v.076l-.144.467-.051.119v.119l-.161.365v.076h0c-.076.144-.119.212-.127.238l-.127.229-.433.611a4.776,4.776,0,0,1-.67.7l-.781.636h-.051l-.093.076-.39.263-1,.535c-.1.059-.373.17-.848.365l-.407.153-.093.051h-.1l-.271.1h-.1l-.178.076h-.1l-.764.255H51.63l-.068.042h-.229a.78.78,0,0,1-.271.085l-.738.238h-.076l-.28.11h0a.127.127,0,0,0-.068.153l.076.059.39.1,1.077.153H53.31a7.075,7.075,0,0,0,.942-.093L55.8,108.4l.136-.059h.136l.848-.373,1.077-.67.509-.45a5.625,5.625,0,0,0,.848-1.06,4.412,4.412,0,0,0,.356-.611v-.153l.229-.492.271-.848.305-1.858a8.863,8.863,0,0,0,0-1.34l-.212-1.926-.993-3.682C59,94.228,58.731,93.609,58.468,93.015Z" transform="translate(-49.893 -89.294)"/>
                </g>
                <path id="Caminho_1160" data-name="Caminho 1160" d="M48.049,84.976H48.9a18.122,18.122,0,0,1-9.035-3.512l-.2-.042-.848-.212a18.416,18.416,0,0,1-1.833-.577,2.546,2.546,0,0,0-.518-.136,27.878,27.878,0,0,1-7.4-4.157q.229.255.458.484a.17.17,0,0,0,.076.076,30.186,30.186,0,0,0,10.181,6.482,4.038,4.038,0,0,1,.509.178c.611.221,1.247.416,1.883.577l.848.212a21.974,21.974,0,0,0,5.09.611M51.909,10.02a19.411,19.411,0,0,0-2.486-.025q-4.047,0-6.1,1.476a13.192,13.192,0,0,0-2.435,2.392,12.209,12.209,0,0,1,1.7-1.323,7.339,7.339,0,0,1,2.7-1.018,1.858,1.858,0,0,1,.424-.076,13.158,13.158,0,0,1,2.817-.221,14.422,14.422,0,0,1,2.342.093,19.242,19.242,0,0,1,10.562,4.42,25.765,25.765,0,0,1,7.177,8.408,53.96,53.96,0,0,1,2.418,5.09,62.536,62.536,0,0,1,2.189,9.052c.11.636.212,1.281.322,1.934a54.74,54.74,0,0,1,.534,7.636,47.962,47.962,0,0,1-.5,6.617c-.068.365-.119.747-.178,1.137A33.707,33.707,0,0,1,72.363,60.1q-.331,1.2-.764,2.367L71,64.012a36.71,36.71,0,0,1-2.961,5.37,20.975,20.975,0,0,1-1.519,1.943,38.323,38.323,0,0,0,7.771-4.844l.535-1.6c.28-.848.534-1.7.755-2.545a37.405,37.405,0,0,0,.976-4.709c.059-.39.119-.848.17-1.222a55.382,55.382,0,0,0,.373-7.016,71.706,71.706,0,0,0-3.521-19.963q-.229-.747-2.672-5.532a28.65,28.65,0,0,0-7.78-9.12,20.361,20.361,0,0,0-11.267-4.734Z" transform="translate(-4.381 -1.511)" fill="#ffce3a"/>
                <path id="Caminho_1161" data-name="Caminho 1161" d="M69.342,86.758a26.054,26.054,0,0,0,3.92-4.658,34.893,34.893,0,0,0,2.927-5.54,38.279,38.279,0,0,1-7.78,4.853,23.753,23.753,0,0,1-2.426,2.545,31.5,31.5,0,0,1-8.1,5.582,26.637,26.637,0,0,1-3.148,1.29l-2.062.6c-.7.153-1.425.288-2.155.407a27.823,27.823,0,0,1-3.139.28h-.848a24.91,24.91,0,0,1-4.819-.56,18.122,18.122,0,0,0,9.069,3.529,30.382,30.382,0,0,0,3.131-.271c.721-.11,1.451-.255,2.18-.424s1.357-.373,2.045-.6a24.147,24.147,0,0,0,3.139-1.29,31.976,31.976,0,0,0,8.068-5.744Z" transform="translate(-6.297 -11.607)"/>
                <path id="Caminho_1162" data-name="Caminho 1162" d="M21.412,61.6a8.161,8.161,0,0,1-2.18-.068,4.726,4.726,0,0,1-.5.339A21.1,21.1,0,0,1,16.05,63.5a50.623,50.623,0,0,0,7.211,13.2,34.12,34.12,0,0,0,2.409,2.9c.356.382.713.755,1.069,1.1s.543.526.8.755c-.153-.153-.314-.314-.458-.484a23.335,23.335,0,0,1-5.642-14.16,38.729,38.729,0,0,1-.076-4.437l.051-.781M29.4,58.157a10.978,10.978,0,0,1-.39-1.027,11.2,11.2,0,0,1-3.8,3.292l-.518.28a4.636,4.636,0,0,0,.076.67,2.282,2.282,0,0,0,0,.416A45.432,45.432,0,0,0,27.2,70.993c.611,1.519,1.247,2.969,1.917,4.335a36.48,36.48,0,0,0,4.4,6.906,29.889,29.889,0,0,0,4.3,3.852,24.274,24.274,0,0,0,4.819.568h.848a27.993,27.993,0,0,0,3.148-.288c.73-.11,1.442-.246,2.155-.407l2.053-.6a26.062,26.062,0,0,0,3.148-1.29A31.543,31.543,0,0,0,62.1,78.484a25.376,25.376,0,0,0,2.426-2.545A23.3,23.3,0,0,1,41.9,74.947a29.693,29.693,0,0,1-5.82-5.285,47.177,47.177,0,0,1-2.825-3.784A37.643,37.643,0,0,1,29.4,58.165m4.59-1.85a26.224,26.224,0,0,0,3.835,5.438,23.611,23.611,0,0,0,5.489,4.386,21.532,21.532,0,0,0,6.923,2.613,17.553,17.553,0,0,0,6.21.093l.713-.11c.5-.059,1-.144,1.5-.246a36.488,36.488,0,0,0,3.886-.933l.263-.051c.942-.331,1.892-.687,2.825-1.077a25.168,25.168,0,0,0,2.9-1.408c.161-.076.331-.153.492-.246h0l-.551.2c-1.035.314-2.045.6-3.046.848l-1,.229-.848.153q-.585.1-1.171.153Q42.155,68.533,31.5,40.4l-.848,2.732a26.3,26.3,0,0,1,.534,6.719l.305.8a.577.577,0,0,0,.1.221,55.808,55.808,0,0,0,2.435,5.447Z" transform="translate(-2.407 -6.125)"/>
                <path id="Caminho_1163" data-name="Caminho 1163" d="M22.006,60.207a.356.356,0,0,1-.144.153c-.653.568-1.34,1.128-2.062,1.7a7.763,7.763,0,0,0,2.172.076c.059-.636.11-1.315.161-2.019a.3.3,0,0,1-.136.136m6.337-8.2a4.166,4.166,0,0,0-.085-.653c-.093.161-.17.322-.246.484a29.458,29.458,0,0,1-1.7,3.139c-.246.4-.56.848-.942,1.417a.085.085,0,0,1,0,.042,1.137,1.137,0,0,1-.153.238c-.042,1.485,0,3,.076,4.539a3.851,3.851,0,0,1,.526-.271,11.1,11.1,0,0,0,3.792-3.3,34.072,34.072,0,0,1-1-4.081c-.1-.509-.187-1.027-.255-1.536m1.994-5.786q.594,2.062,1.374,4.115a25.91,25.91,0,0,0-.526-6.719Z" transform="translate(-2.975 -6.622)"/>
                <path id="Caminho_1164" data-name="Caminho 1164" d="M25.705,56.981a4.377,4.377,0,0,1-.076-.67,9.451,9.451,0,0,1-3.292.848,4.921,4.921,0,0,1-.042.789,38.585,38.585,0,0,0,.085,4.429,23.484,23.484,0,0,0,5.6,14.2,28.09,28.09,0,0,0,7.4,4.149,2.842,2.842,0,0,1,.526.144c.585.212,1.2.407,1.824.577l.848.212a.789.789,0,0,1,.2,0,28.54,28.54,0,0,1-4.3-3.852,36.727,36.727,0,0,1-4.4-6.9q-1-2.053-1.917-4.344a44.778,44.778,0,0,1-2.443-9.205,2.324,2.324,0,0,1,0-.424m24.086-45.4a14.423,14.423,0,0,0-2.3-.093,13.116,13.116,0,0,0-2.766.178,1.782,1.782,0,0,0-.424.076,7.491,7.491,0,0,0-2.749,1.06,11.318,11.318,0,0,0-1.7,1.366A21.905,21.905,0,0,0,37.515,17.8a26.1,26.1,0,0,0-1.2,3.444.2.2,0,0,1-.059.059c-.288.933-.288,1.035,0,.3Q34.3,29.154,33.35,32.76c-.28,1.162-.577,2.265-.9,3.309q10.664,28.065,30.941,25.9a9.147,9.147,0,0,0,1.179-.153l.848-.144,1-.229c1-.255,2.019-.534,3.046-.848l.551-.2h0l-.492.246c-.967.509-1.934.984-2.893,1.408s-1.883.747-2.834,1.077l-.263.051a36.48,36.48,0,0,1-3.886.933c-.5.1-1,.187-1.5.246a2.583,2.583,0,0,0-.713.1,17.554,17.554,0,0,1-6.21-.093,21.71,21.71,0,0,1-6.923-2.6,23.865,23.865,0,0,1-5.489-4.395,25.944,25.944,0,0,1-3.843-5.438A57.759,57.759,0,0,1,32.535,46.5a1.044,1.044,0,0,1-.1-.221c-.093-.271-.2-.534-.314-.848a15.8,15.8,0,0,1-.2,2.146,11.343,11.343,0,0,1-1.926,5.09c.11.339.246.679.39,1.035a38.043,38.043,0,0,0,3.843,7.712c.908,1.34,1.849,2.6,2.825,3.784a29.744,29.744,0,0,0,5.828,5.285,23.28,23.28,0,0,0,22.627.984,20.974,20.974,0,0,0,1.5-1.858,36.761,36.761,0,0,0,2.952-5.336l.6-1.544a24.007,24.007,0,0,0,.764-2.367,32.6,32.6,0,0,0,1.027-4.48q.085-.594.178-1.145a46.662,46.662,0,0,0,.5-6.617,53.56,53.56,0,0,0-.534-7.636c-.1-.653-.2-1.3-.314-1.934a63.943,63.943,0,0,0-2.189-9.052,52.652,52.652,0,0,0-2.435-5.09A26.3,26.3,0,0,0,60.388,16a19.165,19.165,0,0,0-10.6-4.454Z" transform="translate(-3.349 -1.734)" fill="#f8bd02"/>
                <path id="Caminho_1165" data-name="Caminho 1165" d="M25.58,57.135a.076.076,0,0,0,0,.042,25.4,25.4,0,0,1-3.029,3.394c-.051.7-.1,1.374-.161,2.019a9.638,9.638,0,0,0,3.292-.848,45.187,45.187,0,0,1-.1-4.607M30.73,46.7c-.178.577-.28.908-.322.984q-.407,1.1-.848,2.138t-.916,2.011a5.5,5.5,0,0,1,.085.653c.068.518.153,1.027.246,1.536a35.778,35.778,0,0,0,1,4.081A11.148,11.148,0,0,0,31.9,52.961q.153-1.094.2-2.138-.789-2.062-1.391-4.123Z" transform="translate(-3.368 -7.08)" fill="#d8a501"/>
                <g id="Layer0_5_MEMBER_3_MEMBER_0_MEMBER_0_FILL" data-name="Layer0 5 MEMBER 3 MEMBER 0 MEMBER 0 FILL" transform="translate(28.473 18.419)">
                  <path id="Caminho_1166" data-name="Caminho 1166" d="M66.532,27.963a5.8,5.8,0,0,0-4.471,2.9,17.264,17.264,0,0,0-1.782,3.818c-.178.526-.339,1.044-.467,1.544a3.937,3.937,0,0,1-.136.628h0a11.5,11.5,0,0,0,.255,5.26,3.394,3.394,0,0,0,.848,1.366,7.924,7.924,0,0,0,2.681,1.637c1.086.288,2.146.594,3.173.925h0c.314.093.636.161.959.229l10.953,2.5a.305.305,0,0,0,.178.093q0-4.03-.255-7.72a61.034,61.034,0,0,0-1.841-11.555L72.683,28.48h0c-.356-.059-.747-.144-1.162-.246a14.567,14.567,0,0,0-4.963-.3m9.027,7.907c-.271-1.1-.526-2.214-.772-3.326a20.108,20.108,0,0,1,1.85,3.64c.093.2.178.4.255.6a11.156,11.156,0,0,1,.585,6.711,2.545,2.545,0,0,1-2,1.994,21.388,21.388,0,0,0,0-9.587M49.353,23.551h0l-12.3-1.841c-.305.8-.6,1.595-.848,2.384-.645,1.807-1.188,3.606-1.646,5.4a49.526,49.526,0,0,0-1.027,5.4l.594.373.059.059c.5.3,1.01.6,1.536.9a42.861,42.861,0,0,0,13.574,4.819h.051a21.151,21.151,0,0,0,2.545.322v.051a5.939,5.939,0,0,0,2.893-.424A3.758,3.758,0,0,0,56.8,38.864a13.15,13.15,0,0,0,.848-3.2,13.226,13.226,0,0,0,.2-2.011,26.215,26.215,0,0,0-.373-5.218,4.98,4.98,0,0,0-.467-1.391,5.642,5.642,0,0,0-3.64-2.749,34.021,34.021,0,0,0-4.013-.73m-10.868,12.2a2.672,2.672,0,0,1-1.349-1.536q-1.052-3,1.561-7.11a.662.662,0,0,0,0,.2,13.71,13.71,0,0,0,2.18,9.129A6.618,6.618,0,0,1,38.485,35.768Z" transform="translate(-33.53 -21.71)" fill="#fff"/>
                  <path id="Caminho_1167" data-name="Caminho 1167" d="M75.375,33.513c.238,1.111.5,2.214.764,3.326a21.108,21.108,0,0,1,0,9.578,2.545,2.545,0,0,0,1.968-1.96,11.029,11.029,0,0,0-.594-6.7,4.835,4.835,0,0,0-.246-.611,20.9,20.9,0,0,0-1.849-3.631m-37.669,1.7a2.689,2.689,0,0,0,1.357,1.536,6.617,6.617,0,0,0,2.367.687,13.668,13.668,0,0,1-2.18-9.129s0-.119,0-.2q-2.639,4.106-1.586,7.1Z" transform="translate(-34.118 -22.679)" fill="#ffecb7"/>
                </g>
                <path id="Caminho_1168" data-name="Caminho 1168" d="M59.67,43.169a5.269,5.269,0,0,1,2.265.221,4.022,4.022,0,0,1,1.044.484,8.151,8.151,0,0,1-.424-.967c-.085-.229-.161-.467-.238-.721a8.091,8.091,0,0,1-.212-.848,5.871,5.871,0,0,1-2.435,1.816m3-17.367a.136.136,0,0,1,.051.068,6.024,6.024,0,0,1,.95,2.274c.153.747.3,1.493.424,2.291a1.622,1.622,0,0,1,.093.255,4.572,4.572,0,0,1,.6-1.044,7.474,7.474,0,0,1,2.087-2.138,8.161,8.161,0,0,1,1.213-.619,4.59,4.59,0,0,1-.848-.458,4.742,4.742,0,0,1-.848-.738c-.2-.2-.628-.73-1.3-1.586a10.308,10.308,0,0,0-.738-.848,2.757,2.757,0,0,1-.314,1.493,1.782,1.782,0,0,1-1.29,1.052Z" transform="translate(-9.02 -3.523)" fill="#d8a501"/>
                <path id="Caminho_1169" data-name="Caminho 1169" d="M35.152,20.751a4.675,4.675,0,0,0,1.773.713L49.057,23.61h0a35.183,35.183,0,0,1,3.75.848,5.09,5.09,0,0,1,3.249,2.6,3.682,3.682,0,0,1,.433,1.256,9.442,9.442,0,0,1,.119.984,4.94,4.94,0,0,0,.051.848,23.652,23.652,0,0,1,0,2.9,12.946,12.946,0,0,1-.993,4.692,3.648,3.648,0,0,1-1.849,2.028c-.39.136-.781.255-1.2.356a7.745,7.745,0,0,1-1.4.136V40.2c-.781-.059-1.57-.136-2.376-.246H48.8A43.506,43.506,0,0,1,33.82,34.8h0a4.132,4.132,0,0,0-1.29-.518,2.825,2.825,0,0,0-2.63.484h.068a.636.636,0,0,0,.212.212A43.353,43.353,0,0,0,48.4,42.614h0c.916.17,1.807.3,2.7.39h.373a6.083,6.083,0,0,0,1.417.042,2.545,2.545,0,0,0,.365-.059A8.4,8.4,0,0,0,55,42.537a.424.424,0,0,0,.161-.085,5.744,5.744,0,0,0,2.426-1.824c.059.271.136.551.221.848s.153.484.238.713a7.068,7.068,0,0,0,.424.976A4.386,4.386,0,0,0,59.543,44.5a5.394,5.394,0,0,0,.484.39,8.654,8.654,0,0,0,2.834,1.425h.051l3,.916c.255.076.551.17.848.246a.119.119,0,0,0,.068,0L79.9,50.428a1.025,1.025,0,0,0,0-.153,3.139,3.139,0,0,0-1.561-2.35,8.647,8.647,0,0,0-.848-.365q-4.963-1.324-9.943-2.613Q65.8,44.463,63.938,43.9a6.49,6.49,0,0,1-1.8-1.01,3.105,3.105,0,0,1-.959-1.137,8.348,8.348,0,0,1-.755-4.624,15.907,15.907,0,0,1,1.553-5.472,6.465,6.465,0,0,1,1.561-2.019,4.641,4.641,0,0,1,3.529-1.307,14.66,14.66,0,0,1,4.242.373q2.214.543,4.471.95a8.882,8.882,0,0,0,1.171.2,3.92,3.92,0,0,0,3.224-1.332h0l-8.314-2.265A8.534,8.534,0,0,0,70.818,26h-.2a15.534,15.534,0,0,0-3.394-.365,7.313,7.313,0,0,0-1.29.136l-.781.068a6.787,6.787,0,0,0-1.637.39,8.3,8.3,0,0,0-1.23.611A7.449,7.449,0,0,0,60.2,28.972a4.564,4.564,0,0,0-.526.993l-.051-.28c-.127-.781-.271-1.544-.424-2.291a5.939,5.939,0,0,0-.95-2.24l-.051-.076a8.094,8.094,0,0,0-4.989-3.487q-1.519-.365-3.054-.611l-1.06-.127L34.159,18.6c-.271-.042-.322-.042-.212,0A1.79,1.79,0,0,0,35.152,20.751Z" transform="translate(-4.507 -2.816)"/>
                <g id="Layer0_5_MEMBER_4_FILL" data-name="Layer0 5 MEMBER 4 FILL" transform="translate(79.86 39.976)">
                  <path id="Caminho_1170" data-name="Caminho 1170" d="M94.77,47.273V47.2h.28l.772-.085h.068l.73.848V48.1h0l-.7,2.774v.051h0v.068h-.212l-.772.076h-.068l-.772-.781v-.068a.119.119,0,0,0,0-.059h0l.721-2.808V47.3h0Z" transform="translate(-94.1 -47.12)" fill="#4b0d31"/>
                </g>
                <g id="Layer0_5_MEMBER_5_FILL" data-name="Layer0 5 MEMBER 5 FILL" transform="translate(0 25.283)">
                  <path id="Caminho_1171" data-name="Caminho 1171" d="M2.54,42.305A7.805,7.805,0,0,0,0,47.192a7.042,7.042,0,0,0,1.094,4.42q3.461,5.642,12.09,3.326a26.606,26.606,0,0,0,14.253-9.332,45.551,45.551,0,0,1-8.484,2.46,27.429,27.429,0,0,1-8.73-.416A12.505,12.505,0,0,1,2.54,42.314m26.767-2.757-.2-1.1q-5.167-2.223-8.229-3.792a63.967,63.967,0,0,0-6.465-2.995,32.29,32.29,0,0,0-3.945-1.256A14.321,14.321,0,0,0,4.636,29.9,5.09,5.09,0,0,0,.988,32.515,6.728,6.728,0,0,0,0,36.6a11.1,11.1,0,0,0,1.994,4.929l.518.781q10.512-7.72,26.775-2.749Z" transform="translate(0.031 -29.801)" fill="#fff3d3"/>
                  <path id="Caminho_1172" data-name="Caminho 1172" d="M27.917,46.991l1.841-6.041Q13.495,35.962,3,43.7a12.48,12.48,0,0,0,7.7,5.328,27.149,27.149,0,0,0,8.73.424,45.7,45.7,0,0,0,8.484-2.46Z" transform="translate(-0.428 -31.195)" fill="#ffeaa7"/>
                </g>
                <g id="Layer0_5_MEMBER_6_FILL" data-name="Layer0 5 MEMBER 6 FILL" transform="translate(26.699 60.92)">
                  <path id="Caminho_1173" data-name="Caminho 1173" d="M31.465,71.809a.113.113,0,0,0,0,.144l1.748,3.58c.373.636.721,1.188,1.035,1.646l.059.11,1.264,1.646,1.485,1.519h.059l.119.11c.458.356.781.6.993.738s.7.458,1.077.67L41.6,83h.127a8.484,8.484,0,0,0,2.545.28,9.688,9.688,0,0,0,1.213-.178l.28-.068.848-.263a6.218,6.218,0,0,0,.993-.4l.221-.119H47.9l1.077-.619.076-.068.187-.119,1.137-.993.9-.848.059-.076v-.068l.178-.221c.068-.059.068-.11,0-.161a.127.127,0,0,0-.11,0l-.356.119h-.068l-.848.314h-.288l-1.137.416h-.1l-.085.051-1.188.339-.144.136h0l-.942.229h-.059l-1.756.255H43.19a6.611,6.611,0,0,1-1.094.034H41.96l-.509-.076-.144-.051h-.39l-.39-.119-1.485-.662L38.015,79.4l-.059-.051-1.434-1.137-.085-.1-.492-.458-.076-.1-.806-.848-.068-.093c-.271-.305-.679-.789-1.2-1.468L31.6,71.894a.11.11,0,0,0-.136-.085Z" transform="translate(-31.439 -71.806)" fill="#4b0d31"/>
                </g>
                <g id="Layer0_5_MEMBER_7_FILL" data-name="Layer0 5 MEMBER 7 FILL" transform="translate(45.271 64.877)">
                  <path id="Caminho_1174" data-name="Caminho 1174" d="M54.857,76.529V76.47h.127l.127.042.755.144.059.042.518,1.018v.051h0l-1.586,2.545v.051h0a.2.2,0,0,0,0,.068h-.246l-.764-.153h-.059l-.458-1.01v-.119h0l1.493-2.435v-.051h0Z" transform="translate(-53.33 -76.47)" fill="#4b0d31"/>
                </g>
                <g id="Layer0_5_MEMBER_8_FILL" data-name="Layer0 5 MEMBER 8 FILL" transform="translate(29.672 76.392)">
                  <path id="Caminho_1175" data-name="Caminho 1175" d="M43.382,93.765,42.109,91.22l-.076-.119-.534-1.01c0-.059-.085-.068-.161,0s-.059.068,0,.136l1.29,3.809c.093.288.263.916.526,1.883l.6,3.258.1,2.435h0v.619l-.178.848v.076l-.144.45-.059.127v.153l-.17.365v.119l-.059.11h0l-.594.848a6.33,6.33,0,0,1-.662.687l-.085.093-.45.373h0l-.153.11h-.042l-.144.11a.221.221,0,0,1-.093.059l-1.035.636h-.068l-.2.093-.848.356-.781.314H37.91l-.891.3-.153.068h-.339l-1.154.348H35.3l-.28.1h0a.127.127,0,0,0-.068.153l.076.059.39.1h.271l1.035.136h1.994l1.62-.288.322-.11h.076l.255-.093h.144l.976-.424.4-.238a6.346,6.346,0,0,0,1.044-.848,5.286,5.286,0,0,0,.848-1.06l.042-.068.059-.076.543-1.1.119-.322.365-1.519v.305l.119-1.765v-.153l-.161-1.773-.848-3.215-.365-1.035A20.029,20.029,0,0,0,43.382,93.765Z" transform="translate(-34.943 -90.044)"/>
                </g>
                <g id="Layer0_5_MEMBER_9_FILL" data-name="Layer0 5 MEMBER 9 FILL" transform="translate(19.446 74.017)">
                  <path id="Caminho_1176" data-name="Caminho 1176" d="M31.561,94.944V93.816l-.314-2.257-1.188-4.242a.127.127,0,0,0-.153-.068.161.161,0,0,0-.076.127l.416,5.039-.17,2.392a6.914,6.914,0,0,1-.373,1.561l-.076.187v.076l-.042.144h0l-.255.484-.059.059-.042.085-.178.2v.059l-.11.119-.076.051-.11.119-.611.441h-.119l-.407.221h-.059l-.2.11-.212.068h-.068l-.585.178h-.076l-.662.161h-.068l-1.417.212H24.18l-.848.1h-.119l-.221.051c-.085,0-.119,0-.093.119s0,.068.051.076l.407.271.628.305h.068l.848.288.305.076.424.11.848.076h.959l.789-.178.687-.263.458-.263a3.759,3.759,0,0,0,.806-.7l.178-.2.068-.11.093-.11.212-.331.059-.119.076-.11.221-.492v-.1l.051-.119.314-1.077a10.851,10.851,0,0,0,.11-1.688Z" transform="translate(-22.89 -87.243)"/>
                </g>
                <g id="Layer0_5_MEMBER_10_STROKES_1_FILL" data-name="Layer0 5 MEMBER 10 STROKES 1 FILL" transform="translate(43.574 30.797)">
                  <path id="Caminho_1177" data-name="Caminho 1177" d="M54.766,38.048H53.85l-.373-.136L53.3,37.8h-.051l-.28-.059v-.051l-.221-.17-.076-.076-.093-.068-.475-.484h-.076l-.076-.085-.348-.331-.093-.068-.119-.11H51.33v.314l.136.492.042.11v.1a.925.925,0,0,1,.085.212l.255.458v.059l.221.3.1.1.051.076.178.17a2.545,2.545,0,0,0,.56.382,1.06,1.06,0,0,0,.348.119l.17.059h.73l.187-.042a1.926,1.926,0,0,0,.534-.288l.051-.042h.068l.093-.1.187-.178.2-.263.221-.424.068-.212H55.75l-.526.28h-.17Z" transform="translate(-51.33 -36.3)" fill="#4b0d31"/>
                </g>
                <g id="Layer0_5_MEMBER_11_FILL" data-name="Layer0 5 MEMBER 11 FILL" transform="translate(40.223 40.911)">
                  <path id="Caminho_1178" data-name="Caminho 1178" d="M52.648,50.392l-1.222-1.773a.772.772,0,0,0-.551-.373.848.848,0,0,0-.645.1.772.772,0,0,0-.4.585V49l-.161,1.239v1.442l.093.713.45,1.748v.076l.051.093.1.238h0v.127l.042.093v.1l.212.424c.221.356.348.568.4.636l.348.45.136.136a4.463,4.463,0,0,0,.568.492,4.522,4.522,0,0,0,.628.424c.229.11.458.2.687.288l.17.068.526.119.7.085h.738c.059,0,.093,0,.085-.093s0-.059-.059-.068l-.339-.127h-.085l-.221-.068-.585-.271-.4-.255-.119-.093a3.394,3.394,0,0,1-.475-.373l-.424-.433-.543-.848-.059-.127a4.167,4.167,0,0,1-.238-.526v-.144L52,54.431v-.348h0l-.051-.2v-.085l-.136-.67v-.153l-.17-.365v-.331h0v-.085l-.119-.764.848.781c.331.305.636.56.9.772a9.68,9.68,0,0,0,.95.687c.339.212.679.416,1.027.594l.263.136.848.348a7.636,7.636,0,0,0,1.128.365,5.938,5.938,0,0,0,1.154.238l.288.051.848.059a12.4,12.4,0,0,0,2.316-.136,10.042,10.042,0,0,0,1.12-.221l1.052-.28,2.121-.848c.068,0,.076-.051,0-.119a.076.076,0,0,0-.11,0h0l-3.241.789-1.094.1a11.538,11.538,0,0,1-2.163-.068l-.5-.119h-.119l-.4-.085a6.481,6.481,0,0,1-1.035-.288,8.858,8.858,0,0,1-.993-.45l-.246-.11-.687-.407a6.415,6.415,0,0,1-.848-.585,10.53,10.53,0,0,1-.848-.687,7.933,7.933,0,0,1-.764-.747Z" transform="translate(-47.727 -48.222)" fill="#4b0d31"/>
                  <path id="Caminho_1179" data-name="Caminho 1179" d="M47.38,56.492a1.391,1.391,0,0,0,.3.848,4.081,4.081,0,0,0,4.471,1.553,5.566,5.566,0,0,1-1.052-.475,5.625,5.625,0,0,1-2.452-4.768A3.767,3.767,0,0,0,47.38,56.492Z" transform="translate(-47.38 -49.045)" fill="#d8a501"/>
                </g>
                <g id="Layer0_5_MEMBER_12_STROKES_1_FILL" data-name="Layer0 5 MEMBER 12 STROKES 1 FILL" transform="translate(65.174 35.166)">
                  <path id="Caminho_1180" data-name="Caminho 1180" d="M81.21,42.765l-.518.28h-.085l-.178.1h-.136l-.4.127h-.458l-.416-.144-.221-.144H78.75l-.093-.068-.093-.085-.187-.127v-.051h0l-.093-.085L78.19,42.5l-.475-.467-.076-.076-.076-.068-.348-.331h-.246l-.119-.11H76.79v.28l.161.6.17.433.238.416.467.577.051.059a2.784,2.784,0,0,0,.568.382,1.8,1.8,0,0,0,.339.119l.229.068h.848a1.841,1.841,0,0,0,.568-.305l.221-.161v-.059H80.7l.085-.085.2-.263.221-.433.068-.2H81.21Z" transform="translate(-76.79 -41.45)" fill="#4b0d31"/>
                </g>
                <g id="Layer0_5_MEMBER_13_FILL" data-name="Layer0 5 MEMBER 13 FILL" transform="translate(43.948 5.833)">
                  <path id="Caminho_1181" data-name="Caminho 1181" d="M66.261,7.074h-.1l-2.1-.161a24.154,24.154,0,0,0-2.715,0L57.8,7.329h-.119l-.628.127h-.238l-4.3,1.281h-.093l-.653.238v.051h.051l2.927-.662h.1l.3-.059A34.6,34.6,0,0,1,59,7.829h2.995l3.987.407h.093l1.816.382a1.7,1.7,0,0,0,.356.085l.738.229h.178l.933.322a2.044,2.044,0,0,1,.356.136l1.12.433h.1l1.765.848h.051l2.1,1.2c.484.288.959.6,1.417.933s.848.628,1.374,1.035l2.1,1.934,1.171,1.315.085.085.407.509a13.881,13.881,0,0,1,1.077,1.451l.2.263,2.359,4.157v.059l1.51,3.835V27.6l.365,1.29a31.657,31.657,0,0,1,.628,3.453c.068.7.1,1.281.119,1.7s0,1.094,0,1.7v.314l-.6,4.166v.2l-.848,2.783L85.7,45.863l-.738,1.2h0l-.042.076-.238.348-.059.059-1.357,1.7-1.739,1.7a17.483,17.483,0,0,1-1.637,1.307.237.237,0,0,0-.093.068l-.11.059a1.01,1.01,0,0,1-.2.136l-2.842,1.7h-.059l-.721.365a1.018,1.018,0,0,1-.263.11l-.2.11v.051h.051l1.171-.424h.127L80,52.828l1.086-.7h.068l.153-.127.348-.229.11-.1.229-.153.11-.1.119-.076,1.332-1.094,1.9-2.062.28-.348v-.085h0l.713-1.018.059-.076.7-1.154s.263-.509.713-1.408l.9-2.291.721-2.664v-.212l.382-2.749.229-2.163a16.894,16.894,0,0,0-.1-1.846c-.051-.58-.119-1.2-.229-1.853l-.781-3.343v-.051L87.479,22.88v-.068l-1.7-3.114q-.331-.543-.509-.848L83.424,16.3l-1.595-1.7-2.715-2.274-2.062-1.408L74.2,9.382h-.051l-1.2-.509-.085-.051L72.25,8.6l-.093-.051L68.755,7.5Z" transform="translate(-51.77 -6.875)"/>
                </g>
                <g id="Layer0_5_MEMBER_14_FILL" data-name="Layer0 5 MEMBER 14 FILL" transform="translate(34.361)">
                  <path id="Caminho_1182" data-name="Caminho 1182" d="M60.059.093l1.222.161h0L60.2.492h-.153l-.3.068h-.322l-4.522.848-1.111.28-1.7.518L48.64,3.843h0l-.068.051L48.385,4h-.068l-.509.356-.5.365L45.959,5.939l-.093.1-.925.933-.042.068-.246.28c-.475.594-.925,1.2-1.34,1.841l-1.357,2.409L40.47,14.915h0l.127-1.23c.085-.534.17-.984.263-1.374l.56-2.019.628-1.519.136-.263a14.312,14.312,0,0,1,1.239-2.155L44.67,4.8l.119-.119.11-.127.187-.178.068-.051.5-.484.059-.051.068-.068.144-.1L46.01,3.5l1.1-.848.263-.11h0l.246-.161h.085l.144-.1.619-.339.153-.059.085-.059,1.027-.45L52.56.526l1.8-.382a1.077,1.077,0,0,0,.288,0l4-.144A10.141,10.141,0,0,1,60.059.093Z" transform="translate(-40.47)"/>
                </g>
                <g id="Layer0_5_MEMBER_15_FILL" data-name="Layer0 5 MEMBER 15 FILL" transform="translate(64.224 52.6)">
                  <path id="Caminho_1183" data-name="Caminho 1183" d="M76.323,65.037s-.051.051-.068,0l-.585-1.018v-.068l.348-1.1v-.161h.076L78.97,62h.059l.577,1.018v.068l-.263,1.086v.161a.119.119,0,0,0-.076,0h0l-2.774.7h-.059Z" transform="translate(-75.67 -62)"/>
                </g>
              </g>
            </g>
          </g>
        </g>
      </g>
    </g>
  </g>
</svg>
